<svg xmlns:dc="http://purl.org/dc/elements/1.1/" xmlns:cc="http://creativecommons.org/ns#" xmlns:rdf="http://www.w3.org/1999/02/22-rdf-syntax-ns#" xmlns:svg="http://www.w3.org/2000/svg" xmlns="http://www.w3.org/2000/svg" viewBox="0 0 50 50" preserveAspectRatio="xMidYMid meet"><metadata><rdf:RDF><cc:Work><dc:format>image/svg+xml</dc:format><dc:type rdf:resource="http://purl.org/dc/dcmitype/StillImage"/><dc:title>Jdenticon</dc:title><dc:creator><cc:Agent><dc:title>Daniel Mester Pirttijärvi</dc:title></cc:Agent></dc:creator><dc:source>https://github.com/dmester/jdenticon</dc:source><cc:license rdf:resource="https://github.com/dmester/jdenticon/blob/master/LICENSE"/></cc:Work></rdf:RDF></metadata><mask id="avatarsRadiusMask"><rect width="50" height="50" rx="0" ry="0" x="0" y="0" fill="#fff"/></mask><g mask="url(#avatarsRadiusMask)"><path fill="#ffff00" d="M13 1L25 1L25 7ZM37 1L37 13L31 13ZM37 49L25 49L25 43ZM13 49L13 37L19 37ZM1 13L13 13L13 19ZM49 13L49 25L43 25ZM49 37L37 37L37 31ZM1 37L1 25L7 25ZM1 13L1 1L7 1ZM37 1L49 1L49 7ZM49 37L49 49L43 49ZM13 49L1 49L1 43ZM13 13L25 13L25 14.9L20 25L13 25ZM37 13L37 25L35.1 25L25 20L25 13ZM37 37L25 37L25 35.1L30 25L37 25ZM13 37L13 25L14.9 25L25 30L25 37Z"/></g></svg>